# xmcd CD database file
#
# Track frame offsets:
#	150
#	16500
#	36375
#	50100
#	71175
#	95475
#	113325
#	126300
#	146400
#	161925
#	177150
#	188850
#	208125
#
# Disc length: 2935 seconds
#
# Revision: 0
# Processed by: cddbd v1.5.1PL0 Copyright (c) Steve Scherf et al.
# Submitted via: CDex 1.51
#
DISCID=bd0b750d
DTITLE=Peter Driessen - Right Feeling Wrong Woman
DYEAR=1900
DGENRE=Blues
TTITLE0=Right Feeling Wrong Woman
TTITLE1=Strange Little Girl
TTITLE2=Bad Luck And Trouble
TTITLE3=Wet Eyes Wet Eyes
TTITLE4=Love In Vain
TTITLE5=Sail On
TTITLE6=Saltry Tears
TTITLE7=If My Guitar Was A Woman
TTITLE8=All You Pretty Women
TTITLE9=Don't You Worry 'Bout A Thing
TTITLE10=The World Has Got Me Back
TTITLE11=Time Heals A Broken Heart
TTITLE12=You're Damn Right
EXTD=
EXTT0=
EXTT1=
EXTT2=
EXTT3=
EXTT4=
EXTT5=
EXTT6=
EXTT7=
EXTT8=
EXTT9=
EXTT10=
EXTT11=
EXTT12=
PLAYORDER=
